# xmcd
#
# Track frame offsets: 
#        150
#        29119
#        53337
#        87033
#        99937
#        114408
#        145278
#        175380
#        193807
#        217485
#        244185
#        272251
#        301506
#
# Disc length: 4478 seconds
#
# Revision: 2
# Processed by: cddbd v1.5.2PL0 Copyright (c) Steve Scherf et al.
# Submitted via: ExactAudioCopyFreeDBPlugin 1.0
#
DISCID=b0117c0d
DTITLE=Jimmy James - Into the blues
DYEAR=2016
DGENRE=Blues
TTITLE0=Addicted
TTITLE1=Into the blues
TTITLE2=My own fault
TTITLE3=Guit out
TTITLE4=Tell me what you want me to do
TTITLE5=Any Day  - All Along The Watchtower
TTITLE6=Voodo child
TTITLE7=Sugar sweet
TTITLE8=Ride that train
TTITLE9=How come u don't call me anymore
TTITLE10=PLayback
TTITLE11=Calling on love
TTITLE12=Going Home  - Into The Mystic  - Wings
EXTD=
EXTT0=
EXTT1=
EXTT2=
EXTT3=
EXTT4=
EXTT5=
EXTT6=
EXTT7=
EXTT8=
EXTT9=
EXTT10=
EXTT11=
EXTT12=
PLAYORDER=
